<svg width="1254" height="963" viewBox="0 0 1254 963" fill="none" xmlns="http://www.w3.org/2000/svg">
<path d="M101.349 3.99793L-49.8754 76.1466C-53.0063 77.6403 -55 80.8005 -55 84.2695V1364C-55 1368.97 -50.9705 1373 -46 1373H1335C1339.97 1373 1344 1368.97 1344 1364V209.37C1344 203.076 1337.71 198.726 1331.82 200.951L1091.91 291.603C1089.38 292.556 1086.57 292.328 1084.23 290.98L673.746 54.2172C671.44 52.8873 668.664 52.6463 666.163 53.5589L434.723 138.031C430.566 139.548 425.923 137.819 423.772 133.952L373.76 44.0588C371.236 39.5225 365.409 38.056 361.038 40.8574L224.808 128.182C221 130.623 215.973 129.859 213.062 126.397L112.113 6.32898C109.475 3.19099 105.049 2.23259 101.349 3.99793Z" fill="url(#paint0_linear_1_4)" stroke="#00386F" stroke-width="5"/>
<defs>
<linearGradient id="paint0_linear_1_4" x1="644.5" y1="31.4663" x2="644.5" y2="856.596" gradientUnits="userSpaceOnUse">
<stop stop-color="#032441"/>
<stop offset="1" stop-color="#141929"/>
</linearGradient>
</defs>
</svg>
