<svg width="93" height="93" viewBox="0 0 93 93" fill="none" xmlns="http://www.w3.org/2000/svg">
<circle cx="46.1082" cy="46.1082" r="46.1082" fill="#00BA6E"/>
<path d="M29.9201 24.5874C29.0851 23.9559 27.8984 24.0327 27.1425 24.7581L23.6266 28.1717C22.8794 28.8971 22.8003 30.0492 23.442 30.8685L30.4739 39.7439C30.8694 40.2474 31.4935 40.5461 32.144 40.5461H36.8993L46.4802 49.8482C45.1881 52.323 45.6012 55.4294 47.7372 57.4947L57.5818 67.0528C58.6806 68.1196 60.4649 68.1196 61.5636 67.0528L67.1892 61.591C68.2879 60.5243 68.2879 58.7919 67.1892 57.7251L57.3445 48.167C55.2174 46.1017 52.0179 45.6921 49.4688 46.9466L39.8878 37.6445V33.0361C39.8878 32.396 39.5802 31.7987 39.0616 31.4146L29.9201 24.5874ZM24.7605 57.9641C23.6442 59.0479 23.0113 60.5243 23.0113 62.0604C23.0113 65.2607 25.6834 67.855 28.9796 67.855C30.5618 67.855 32.0824 67.2406 33.1987 66.1567L43.5532 56.1036C42.8676 54.32 42.7621 52.3828 43.2368 50.548L37.8134 45.2825L24.7605 57.9641ZM68.0154 36.4497C68.0154 35.5536 67.9187 34.6832 67.7341 33.8468C67.5232 32.891 66.319 32.6435 65.607 33.3348L59.9903 38.788C59.7266 39.0441 59.3662 39.1891 58.997 39.1891H53.9516C53.1781 39.1891 52.5452 38.5747 52.5452 37.8237V32.9166C52.5452 32.5582 52.6947 32.2083 52.9584 31.9523L58.5751 26.499C59.2871 25.8078 59.0322 24.6386 58.0477 24.4338C57.1775 24.2546 56.2809 24.1607 55.358 24.1607C48.3701 24.1607 42.7006 29.6652 42.7006 36.4497V36.518L50.1983 43.7975C53.3627 43.0209 56.8611 43.8402 59.3398 46.2468L60.7198 47.5866C65.0269 45.6238 68.0154 41.3739 68.0154 36.4497ZM27.9336 61.0278C27.9336 60.4846 28.1559 59.9636 28.5515 59.5795C28.9471 59.1954 29.4837 58.9796 30.0432 58.9796C30.6027 58.9796 31.1392 59.1954 31.5349 59.5795C31.9305 59.9636 32.1527 60.4846 32.1527 61.0278C32.1527 61.571 31.9305 62.0919 31.5349 62.476C31.1392 62.8602 30.6027 63.0759 30.0432 63.0759C29.4837 63.0759 28.9471 62.8602 28.5515 62.476C28.1559 62.0919 27.9336 61.571 27.9336 61.0278Z" fill="white"/>
</svg>
